HIERARCHY
ROOT Hips
{
  OFFSET -32.5998 29.0326 120.673
  CHANNELS 6 Xposition Yposition Zposition Zrotation Xrotation Yrotation
  JOINT LeftUpLeg
  {
    OFFSET 8.64259 1.95398 -2.38835
    CHANNELS 3 Zrotation Xrotation Yrotation
    JOINT LeftLeg
    {
      OFFSET 43.7702 0 0
      CHANNELS 3 Zrotation Xrotation Yrotation
      JOINT LeftFoot
      {
        OFFSET 40.6238 0 0
        CHANNELS 3 Zrotation Xrotation Yrotation
        JOINT LeftToeBase
        {
          OFFSET 12.7242 0 0
          CHANNELS 3 Zrotation Xrotation Yrotation
          End Site
          {
            OFFSET 0 0 0
          }
        }
      }
    }
  }
  JOINT RightUpLeg
  {
    OFFSET -8.2249 1.95398 -2.59336
    CHANNELS 3 Zrotation Xrotation Yrotation
    JOINT RightLeg
    {
      OFFSET 43.5653 0 0
      CHANNELS 3 Zrotation Xrotation Yrotation
      JOINT RightFoot
      {
        OFFSET 40.6238 0 0
        CHANNELS 3 Zrotation Xrotation Yrotation
        JOINT RightToeBase
        {
          OFFSET 12.7242 0 0
          CHANNELS 3 Zrotation Xrotation Yrotation
          End Site
          {
            OFFSET 0 0 0
          }
        }
      }
    }
  }
  JOINT Spine
  {
    OFFSET 0.165834 0.87714 6.61349
    CHANNELS 3 Zrotation Xrotation Yrotation
    JOINT Spine1
    {
      OFFSET 7.38963 1.71661e-005 0
      CHANNELS 3 Zrotation Xrotation Yrotation
      JOINT Spine2
      {
        OFFSET 11.9445 1.14441e-005 0
        CHANNELS 3 Zrotation Xrotation Yrotation
        JOINT Spine3
        {
          OFFSET 14.7254 4.19617e-005 0
          CHANNELS 3 Zrotation Xrotation Yrotation
          JOINT Spine4
          {
            OFFSET 10.9679 0 0
            CHANNELS 3 Zrotation Xrotation Yrotation
            JOINT RightShoulder
            {
              OFFSET 2.46616 -1.6653 3.69651
              CHANNELS 3 Zrotation Xrotation Yrotation
              JOINT RightArm
              {
                OFFSET 13.0012 0 0
                CHANNELS 3 Zrotation Xrotation Yrotation
                JOINT RightForeArm
                {
                  OFFSET 28.7848 1.62311e-005 0
                  CHANNELS 3 Zrotation Xrotation Yrotation
                  JOINT RightHand
                  {
                    OFFSET 26.5688 1.62095e-005 0
                    CHANNELS 3 Zrotation Xrotation Yrotation
                    End Site
                    {
                      OFFSET 0 0 0
                    }
                  }
                }
              }
            }
            JOINT LeftShoulder
            {
              OFFSET 2.38034 -1.29275 -3.7523
              CHANNELS 3 Zrotation Xrotation Yrotation
              JOINT LeftArm
              {
                OFFSET 16.3182 6.07031e-005 0
                CHANNELS 3 Zrotation Xrotation Yrotation
                JOINT LeftForeArm
                {
                  OFFSET 27.0901 0 0
                  CHANNELS 3 Zrotation Xrotation Yrotation
                  JOINT LeftHand
                  {
                    OFFSET 24.5451 1.51738e-005 0
                    CHANNELS 3 Zrotation Xrotation Yrotation
                    End Site
                    {
                      OFFSET 0 0 0
                    }
                  }
                }
              }
            }
            JOINT Neck
            {
              OFFSET 5.0226 -0.0266342 0
              CHANNELS 3 Zrotation Xrotation Yrotation
              JOINT Head
              {
                OFFSET 6.69364 2.86102e-005 0
                CHANNELS 3 Zrotation Xrotation Yrotation
                End Site
                {
                  OFFSET 0 0 0
                }
              }
            }
          }
        }
      }
    }
  }
}
MOTION
Frames:	9
Frame Time:	0.0416667
-100.677 91.6714 71.514 -91.2765 -50.7142 -78.0973 -143.896 -43.367 178.824 -8.28226 7.69136 0.323053 73.4684 -37.1706 66.055 142.871 -3.30776 -61.8359 176.387 31.2644 107.177 -39.1983 -8.22339 4.31841 67.5546 -3.53097 -1.92773 23.6646 0.960497 4.60762 -1.21322 7.76466 -92.112 11.2708 -3.39729 -3.87049 -0.401001 -3.56424 -3.71736 -22.906 -2.07847 -4.7111 -2.89335 -2.07848 -4.7111 91.5135 -30.7032 -103.511 36.3002 -7.24279 3.39039 -7.92432 -11.4483 -6.28267 -7.98347 0.0559963 -6.37716 -90.08 -50.0835 78.6239 -35.6389 -16.1332 -22.2786 27.7744 2.07825 -77.7578 3.25623 0.196669 1.55439 5.88775 0.999937 -10.1009 -8.80144 2.82489 1.66979 
-100.503 89.5472 77.486 -94.9406 -49.6453 -83.3079 -140.866 -45.2819 178.315 -11.8619 34.0761 0.344357 53.9838 -57.6463 58.1725 142.168 -4.6445 -63.7573 175.187 32.4924 103.205 -51.9191 -12.0901 3.84806 72.2978 -5.54264 -3.67908 21.1573 1.74496 5.40581 -0.657955 7.9407 -91.7377 10.9512 -2.11404 -3.25662 -0.721854 -2.25523 -3.16054 -23.2287 -1.03834 -3.74076 -3.21606 -1.03834 -3.74078 90.8481 -30.4204 -104.924 37.7095 -8.286 1.32347 -7.93245 -9.79403 -7.19067 -7.8951 0.0477908 -6.2745 -90.5615 -50.7866 78.0643 -27.1873 2.66287 -16.0659 15.3309 -1.36993 -42.0327 -1.40503 -0.0612942 -0.909765 9.01359 1.57815 -3.64034 -8.72718 2.24797 1.96171 
-98.218 89.161 81.6466 -96.1036 -49.995 -85.605 -154.632 -40.6269 167.856 -37.9798 55.527 3.53052 34.9747 -65.8094 29.6749 142.536 -3.67247 -62.4156 175.74 32.3704 98.3048 -55.3612 -13.1327 3.63779 74.0726 -5.25916 -2.75892 21.49 1.75628 4.94152 -0.0332727 8.05979 -91.4178 10.7377 -0.719945 -2.7551 -0.93584 -0.840452 -2.72079 -23.4477 0.141006 -2.84406 -3.43509 0.141007 -2.84406 91.1096 -27.291 -105.542 39.3873 -8.77595 -3.35393 -7.96517 -7.41499 -8.08001 -12.2819 -0.0862311 -4.46155 -89.8648 -50.3759 79.0094 -22.3848 6.87302 -17.9056 21.2536 15.0849 -22.9575 2.77396 0.0916951 -0.439416 9.74568 1.75719 2.6374 -8.47696 1.02429 2.78545 
-99.2439 92.4787 86.6957 -98.5086 -50.5005 -93.0293 -153.775 -40.8116 164.09 -31.1464 48.2073 2.76228 19.6836 -63.3128 8.42939 141.92 -3.42244 -62.3508 177.577 25.2463 90.5535 -50.8726 -14.665 1.38208 72.9439 -2.76872 -2.09842 24.8592 -0.0124482 6.38197 0.45325 8.15162 -90.6804 10.5779 0.590032 -1.39975 -1.09363 0.527866 -1.42436 -23.6258 0.983442 -1.15775 -3.61311 0.983446 -1.15775 92.4034 -24.681 -103.772 40.5584 -5.48926 -7.13998 -9.44214 -5.4339 -9.69564 -13.971 -0.235079 -3.37845 -88.9066 -50.6736 80.4971 -23.4949 -1.25025 -8.52095 19.6985 11.1395 -21.7406 2.54071 0.196804 2.34585 3.43848 0.974008 5.6074 -7.50577 -0.16401 3.94087 
-104.28 98.2532 92.3893 -101.201 -47.7296 -100.853 -138.846 -48.6469 167.021 -4.17206 35.2655 0.281368 3.94682 -69.6123 -1.00015 143.646 -2.72768 -60.8211 178.839 17.4766 86.3209 -46.1418 -16.2204 -3.3864 64.2401 5.98334 1.14068 21.5864 0.861378 7.67647 1.00756 8.26656 -89.707 10.3429 2.14144 0.395376 -1.32626 2.15677 0.300691 -23.8733 1.92359 1.02091 -3.86062 1.9236 1.0209 93.1245 -23.2217 -102.719 42.9711 -4.34191 -7.52652 -10.55 -5.24822 -15.2194 -16.9829 -0.410787 -2.39989 -88.072 -48.5995 81.3583 -20.6465 2.04774 0.60465 18.9888 10.1593 -23.8573 2.76044 0.321618 4.69352 -4.6575 0.0565505 4.60279 -7.90704 -0.476897 2.16927 
-109.216 101.961 97.2908 -98.7084 -42.6861 -101.357 -135.378 -53.8409 161.407 -1.47299 36.1755 0.0130507 30.4371 -84.1674 26.0869 146.03 -2.04398 -59.1394 177.768 18.9276 85.3244 -49.1651 -15.3149 -3.3603 62.2424 6.76805 2.32705 19.3261 2.25148 6.12706 1.55743 8.28128 -89.1311 10.2901 3.50042 1.42422 -1.37674 3.55967 1.26862 -23.9337 2.91054 2.41089 -3.92108 2.91055 2.41088 92.7065 -21.9887 -104.132 43.1298 -6.97603 -7.99891 -11.6426 -7.60165 -20.5153 -15.3435 -0.136586 -4.24569 -87.4693 -43.0851 81.2388 -23.7647 14.167 8.88622 16.0816 4.83185 -26.9203 1.00675 0.152056 3.83984 -6.10891 0.647218 4.66167 -7.70783 0.177198 1.72119 
-113.469 102.96 101.891 -96.1317 -39.2711 -98.4641 -131.881 -55.4746 159.536 -2.15808 35.6643 -0.0476836 136.096 -78.8222 131.125 148.154 -1.02035 -57.2573 175.171 21.7762 87.6244 -48.3909 -14.6704 0.288046 59.9626 6.0402 5.07328 25.4145 0.636166 3.2189 1.65893 8.21768 -89.2427 10.4215 3.65172 1.1833 -1.24472 3.70027 1.02124 -23.8077 3.12722 2.22686 -3.79503 3.12722 2.22685 91.8711 -22.4518 -105.839 39.7222 -9.10286 -10.5437 -10.9327 -7.76046 -19.3537 -16.9936 -0.186756 -4.01504 -87.3753 -45.7015 81.8957 -25.4528 21.862 17.08 13.594 0.287964 -30.0115 -0.134727 0.000898537 0.493002 -5.28356 1.56324 8.30351 -6.42514 0.708519 2.69368 
-117.977 101.792 106.729 -96.2631 -36.2784 -97.9884 -127.975 -60.4118 159.519 -3.22758 27.4545 -0.228084 141.097 -65.3774 134.935 148.448 -0.675265 -56.7761 175.964 21.9227 90.6721 -47.1621 -16.9479 -1.13597 61.306 4.44808 3.37771 23.1704 1.57865 3.18292 1.57062 8.28221 -89.3422 10.2961 3.42997 1.01074 -1.37055 3.47114 0.858631 -23.9314 2.96757 1.99555 -3.91873 2.96757 1.99555 92.0903 -23.0769 -105.086 38.4473 -10.6873 -12.5848 -10.0127 -6.74391 -18.2706 -17.7522 -0.390569 -2.67123 -86.381 -45.532 83.4386 -31.8723 18.2325 23.8615 15.1587 1.6906 -32.3401 -3.83756 -0.159857 1.26732 -4.45294 3.08657 10.0025 -6.86641 1.95752 3.53346 
-122.308 98.2198 111.869 -95.6674 -33.2857 -98.1318 -127.09 -67.5476 156.331 -4.8889 13.9524 -0.615641 143.636 -50.9677 134.152 148.302 -0.448469 -56.5626 174.82 22.9995 90.7616 -47.6094 -13.827 -0.716296 58.516 4.22407 -0.508355 24.6507 -0.555246 8.69399 1.46563 8.28503 -89.3961 10.2924 3.19612 0.924219 -1.37485 3.23372 0.782518 -23.9325 2.77054 1.84262 -3.91982 2.77053 1.84262 91.3694 -23.4798 -106.519 38.1861 -9.85277 -11.5517 -10.5745 -6.16633 -19.9007 -15.5892 -0.175988 -3.9725 -86.1761 -45.6946 83.79 -37.4704 16.0952 26.3945 12.9425 -0.627508 -29.3245 -5.46643 -0.222505 0.370398 -4.13368 4.56966 12.1741 -6.25348 3.21012 3.13286 
